<svg xmlns="http://www.w3.org/2000/svg" version="1.1" xmlns:xlink="http://www.w3.org/1999/xlink" xmlns:svgjs="http://svgjs.dev/svgjs" width="1000" height="156" viewBox="0 0 1000 156"><g transform="matrix(1,0,0,1,-0.6060516533358395,-0.22566561494767257)"><svg viewBox="0 0 396 62" data-background-color="#0053A6" preserveAspectRatio="xMidYMid meet" height="156" width="1000" xmlns="http://www.w3.org/2000/svg" xmlns:xlink="http://www.w3.org/1999/xlink"><g id="tight-bounds" transform="matrix(1,0,0,1,0.23999645472099473,0.08968761619715337)"><svg viewBox="0 0 395.52 61.820624767605686" height="61.820624767605686" width="395.52"><g><svg viewBox="0 0 484.1137866761028 75.66802374324448" height="61.820624767605686" width="395.52"><g transform="matrix(1,0,0,1,88.59378667610278,10.457737000694426)"><svg viewBox="0 0 395.52 54.752549741855624" height="54.752549741855624" width="395.52"><g id="textblocktransform"><svg viewBox="0 0 395.52 54.752549741855624" height="54.752549741855624" width="395.52" id="textblock"><g><svg viewBox="0 0 395.52 54.752549741855624" height="54.752549741855624" width="395.52"><g transform="matrix(1,0,0,1,0,0)"><svg width="395.52" viewBox="2.190000057220459 -37.599998474121094 331.17999267578125 45.849998474121094" height="54.752549741855624" data-palette-color="#ffffff"><path d="M24.9-29.6L24.9-29.6Q23.6-31.05 21.7-32.1 19.8-33.15 16.75-33.15L16.75-33.15Q13.2-33.15 11.23-31.68 9.25-30.2 9.25-27.6L9.25-27.6Q9.25-26.9 9.6-25.95 9.95-25 11.03-24.13 12.1-23.25 14.15-22.5L14.15-22.5 21.65-20.15Q26.2-18.75 28.18-16.18 30.15-13.6 30.15-10.15L30.15-10.15Q30.15-6.85 28.48-4.45 26.8-2.05 23.73-0.78 20.65 0.5 16.4 0.5L16.4 0.5Q13.25 0.5 10.58-0.23 7.9-0.95 5.83-2.38 3.75-3.8 2.35-5.85L2.35-5.85Q2.15-6.2 2.2-6.5 2.25-6.8 2.65-7.1L2.65-7.1 5.1-8.8Q5.65-9.15 5.95-9.1 6.25-9.05 6.5-8.75L6.5-8.75Q7.75-7.15 9.03-6.05 10.3-4.95 11.98-4.42 13.65-3.9 16.05-3.9L16.05-3.9Q19.8-3.9 22.08-5.23 24.35-6.55 24.35-9.45L24.35-9.45Q24.35-10.6 23.9-11.53 23.45-12.45 22.35-13.23 21.25-14 19.15-14.75L19.15-14.75 11.6-17.2Q8.75-18.15 6.98-19.65 5.2-21.15 4.35-23.05 3.5-24.95 3.5-26.95L3.5-26.95Q3.5-30.15 5.15-32.55 6.8-34.95 9.75-36.27 12.7-37.6 16.65-37.6L16.65-37.6Q19.3-37.6 21.53-36.98 23.75-36.35 25.6-35.23 27.45-34.1 28.75-32.55L28.75-32.55Q28.95-32.3 29.03-32.05 29.1-31.8 28.75-31.5L28.75-31.5 25.9-29.3Q25.6-29.1 25.43-29.18 25.25-29.25 24.9-29.6L24.9-29.6ZM36.4 8.25L36.4 8.25Q34.9 8.25 34.12 8.15 33.35 8.05 33.35 7.5L33.35 7.5 33.35 4.95Q33.35 4.65 33.62 4.45 33.9 4.25 34.75 4.25L34.75 4.25 38 4.25Q39.05 4.25 39.92 3.63 40.8 3 41.35 2.05 41.9 1.1 42.07 0.08 42.25-0.95 41.95-1.75L41.95-1.75 32.4-25.55Q32.25-25.9 32.4-26.2 32.55-26.5 33.05-26.5L33.05-26.5 37.15-26.5Q37.45-26.5 37.7-26.33 37.95-26.15 38-25.85L38-25.85 44.9-7.85Q45.05-7.4 45.3-7.4 45.55-7.4 45.75-8L45.75-8 52.55-25.9Q52.65-26.15 52.85-26.33 53.05-26.5 53.35-26.5L53.35-26.5 56.3-26.5Q56.7-26.5 56.87-26.23 57.05-25.95 56.85-25.65L56.85-25.65 46.1 1.6Q45.3 3.65 44.35 4.95 43.4 6.25 42.25 6.98 41.1 7.7 39.67 7.98 38.25 8.25 36.4 8.25L36.4 8.25ZM62.45 0L62.45 0Q61.65 0 61.65-0.8L61.65-0.8 61.65-25.75Q61.65-26.5 62.3-26.5L62.3-26.5 66.2-26.5Q66.8-26.5 66.8-25.85L66.8-25.85 66.8-23.1Q66.8-22.85 66.95-22.78 67.09-22.7 67.3-22.95L67.3-22.95Q68.84-24.2 70.2-25.13 71.55-26.05 72.97-26.53 74.4-27 76.05-27L76.05-27Q78.9-27 80.7-25.68 82.5-24.35 83.15-22.5L83.15-22.5Q83.25-22.3 83.42-22.35 83.59-22.4 83.8-22.6L83.8-22.6Q85.25-23.95 86.7-24.93 88.15-25.9 89.65-26.45 91.15-27 92.8-27L92.8-27Q96.4-27 98.42-24.9 100.45-22.8 100.45-19.25L100.45-19.25 100.45-0.9Q100.45 0 99.55 0L99.55 0 95.84 0Q95.5 0 95.32-0.18 95.15-0.35 95.15-0.8L95.15-0.8 95.15-18.3Q95.15-20.5 94.05-21.75 92.95-23 90.75-23L90.75-23Q89.45-23 88.25-22.5 87.05-22 86.07-21.28 85.09-20.55 84.34-19.85L84.34-19.85Q84-19.5 83.84-19.2 83.7-18.9 83.7-18.4L83.7-18.4 83.7-0.9Q83.7 0 82.8 0L82.8 0 79.15 0Q78.8 0 78.59-0.18 78.4-0.35 78.4-0.8L78.4-0.8 78.4-18.3Q78.4-20.5 77.34-21.75 76.3-23 74-23L74-23Q72.09-23 70.52-22.08 68.95-21.15 66.95-19.25L66.95-19.25 66.95-0.85Q66.95 0 66 0L66 0 62.45 0ZM120.44-26.5L120.44-26.5Q120.79-26.5 120.97-26.33 121.14-26.15 121.14-25.85L121.14-25.85 121.14-23.25Q121.14-22.7 120.49-22.7L120.49-22.7 115.29-22.7Q114.84-22.7 114.84-22.25L114.84-22.25 114.84-0.8Q114.84 0 114.19 0L114.19 0 110.14 0Q109.54 0 109.54-0.7L109.54-0.7 109.54-22.3Q109.54-22.7 109.19-22.7L109.19-22.7 104.69-22.7Q104.09-22.7 104.09-23.25L104.09-23.25 104.09-25.85Q104.09-26.15 104.24-26.33 104.39-26.5 104.74-26.5L104.74-26.5 109.04-26.5Q109.54-26.5 109.54-27.1L109.54-27.1 109.54-30.55Q109.54-33.7 111.19-35.4 112.84-37.1 116.14-37.1L116.14-37.1 120.59-37.1Q121.34-37.1 121.34-36.35L121.34-36.35 121.39-34Q121.39-33.75 121.24-33.58 121.09-33.4 120.74-33.4L120.74-33.4 117.54-33.4Q116.09-33.4 115.42-32.48 114.74-31.55 114.74-30L114.74-30 114.74-26.95Q114.74-26.5 115.24-26.5L115.24-26.5 120.44-26.5ZM136.19 0.5L136.19 0.5Q132.34 0.5 129.44-1.23 126.54-2.95 124.94-6.03 123.34-9.1 123.34-13.1L123.34-13.1Q123.34-17.25 124.99-20.38 126.64-23.5 129.56-25.25 132.49-27 136.24-27L136.24-27Q140.14-27 143.02-25.23 145.89-23.45 147.49-20.33 149.09-17.2 149.09-13.15L149.09-13.15Q149.09-9.15 147.47-6.08 145.84-3 142.94-1.25 140.04 0.5 136.19 0.5L136.19 0.5ZM136.29-3.25L136.29-3.25Q138.64-3.25 140.29-4.45 141.94-5.65 142.81-7.88 143.69-10.1 143.69-13.25L143.69-13.25Q143.69-16.4 142.81-18.65 141.94-20.9 140.27-22.13 138.59-23.35 136.24-23.35L136.24-23.35Q133.89-23.35 132.22-22.13 130.54-20.9 129.64-18.65 128.74-16.4 128.74-13.25L128.74-13.25Q128.74-10.1 129.64-7.88 130.54-5.65 132.22-4.45 133.89-3.25 136.29-3.25L136.29-3.25ZM157.69 0L155.59 0Q155.09 0 154.89-0.2 154.69-0.4 154.69-0.9L154.69-0.9 154.69-36.35Q154.69-37.1 155.39-37.1L155.39-37.1 159.39-37.1Q159.99-37.1 159.99-36.35L159.99-36.35 159.99-24.25Q159.99-23.75 160.21-23.7 160.44-23.65 160.79-23.95L160.79-23.95Q161.34-24.5 162.36-25.2 163.39-25.9 164.91-26.45 166.44-27 168.44-27L168.44-27Q172.04-27 174.39-25.23 176.74-23.45 177.91-20.4 179.09-17.35 179.09-13.4L179.09-13.4Q179.09-7 176.11-3.25 173.14 0.5 167.69 0.5L167.69 0.5Q165.54 0.5 163.94-0.15 162.34-0.8 161.29-1.75 160.24-2.7 159.64-3.45L159.64-3.45Q159.44-3.7 159.26-3.68 159.09-3.65 159.09-3.3L159.09-3.3 158.69-0.85Q158.54 0 157.69 0L157.69 0ZM159.99-20L159.99-9Q159.99-7.3 160.91-5.95 161.84-4.6 163.31-3.83 164.79-3.05 166.49-3.05L166.49-3.05Q168.54-3.05 170.16-4.1 171.79-5.15 172.71-7.43 173.64-9.7 173.64-13.3L173.64-13.3Q173.64-18.25 171.89-20.8 170.14-23.35 166.74-23.35L166.74-23.35Q164.69-23.35 162.94-22.4 161.19-21.45 159.99-20L159.99-20ZM196.23 0.5L196.23 0.5Q192.38 0.5 189.48-1.23 186.59-2.95 184.98-6.03 183.38-9.1 183.38-13.1L183.38-13.1Q183.38-17.25 185.03-20.38 186.69-23.5 189.61-25.25 192.53-27 196.28-27L196.28-27Q200.19-27 203.06-25.23 205.94-23.45 207.53-20.33 209.13-17.2 209.13-13.15L209.13-13.15Q209.13-9.15 207.51-6.08 205.88-3 202.99-1.25 200.09 0.5 196.23 0.5L196.23 0.5ZM196.34-3.25L196.34-3.25Q198.69-3.25 200.34-4.45 201.99-5.65 202.86-7.88 203.74-10.1 203.74-13.25L203.74-13.25Q203.74-16.4 202.86-18.65 201.99-20.9 200.31-22.13 198.63-23.35 196.28-23.35L196.28-23.35Q193.94-23.35 192.26-22.13 190.59-20.9 189.69-18.65 188.78-16.4 188.78-13.25L188.78-13.25Q188.78-10.1 189.69-7.88 190.59-5.65 192.26-4.45 193.94-3.25 196.34-3.25L196.34-3.25ZM226.18 0.5L226.18 0.5Q222.33 0.5 219.43-1.23 216.53-2.95 214.93-6.03 213.33-9.1 213.33-13.1L213.33-13.1Q213.33-17.25 214.98-20.38 216.63-23.5 219.56-25.25 222.48-27 226.23-27L226.23-27Q230.13-27 233.01-25.23 235.88-23.45 237.48-20.33 239.08-17.2 239.08-13.15L239.08-13.15Q239.08-9.15 237.46-6.08 235.83-3 232.93-1.25 230.03 0.5 226.18 0.5L226.18 0.5ZM226.28-3.25L226.28-3.25Q228.63-3.25 230.28-4.45 231.93-5.65 232.81-7.88 233.68-10.1 233.68-13.25L233.68-13.25Q233.68-16.4 232.81-18.65 231.93-20.9 230.26-22.13 228.58-23.35 226.23-23.35L226.23-23.35Q223.88-23.35 222.21-22.13 220.53-20.9 219.63-18.65 218.73-16.4 218.73-13.25L218.73-13.25Q218.73-10.1 219.63-7.88 220.53-5.65 222.21-4.45 223.88-3.25 226.28-3.25L226.28-3.25ZM260.73-20.3L260.73-20.3Q259.78-21.7 258.08-22.6 256.38-23.5 254.03-23.5L254.03-23.5Q251.58-23.5 249.96-22.5 248.33-21.5 248.33-19.7L248.33-19.7Q248.33-18.85 249.03-18 249.73-17.15 252.03-16.5L252.03-16.5 258.18-14.75Q261.83-13.8 263.43-11.9 265.03-10 265.03-7.55L265.03-7.55Q265.03-5.05 263.61-3.28 262.18-1.5 259.66-0.5 257.13 0.5 253.88 0.5L253.88 0.5Q249.78 0.5 246.75-1.07 243.73-2.65 242.48-5L242.48-5Q242.38-5.3 242.38-5.53 242.38-5.75 242.58-5.9L242.58-5.9 245.03-7.2Q245.38-7.4 245.61-7.38 245.83-7.35 245.93-7.15L245.93-7.15Q246.73-6 247.78-5.1 248.83-4.2 250.33-3.68 251.83-3.15 253.93-3.15L253.93-3.15Q255.68-3.15 257.11-3.63 258.53-4.1 259.33-4.95 260.13-5.8 260.13-6.95L260.13-6.95Q260.13-8.15 259.16-9.03 258.18-9.9 255.73-10.55L255.73-10.55 250.63-11.85Q246.83-12.85 245.18-14.6 243.53-16.35 243.53-18.8L243.53-18.8Q243.53-21.25 244.83-23.08 246.13-24.9 248.5-25.95 250.88-27 254.08-27L254.08-27Q257.58-27 260.23-25.68 262.88-24.35 264.23-22.3L264.23-22.3Q264.38-22.1 264.43-21.88 264.48-21.65 264.18-21.45L264.18-21.45 261.58-20.1Q261.38-20 261.16-20.05 260.93-20.1 260.73-20.3L260.73-20.3ZM284.13-22.7L278.13-22.7Q277.68-22.7 277.68-22.2L277.68-22.2 277.68-7.55Q277.68-5.4 278.48-4.63 279.28-3.85 280.93-3.85L280.93-3.85 284.13-3.85Q284.43-3.85 284.58-3.68 284.73-3.5 284.73-3.25L284.73-3.25 284.73-1.1Q284.73-0.45 283.98-0.25L283.98-0.25Q283.33-0.15 282.38-0.1 281.43-0.05 280.5-0.03 279.58 0 278.88 0L278.88 0Q275.63 0 274-1.53 272.38-3.05 272.38-6.25L272.38-6.25 272.38-22.1Q272.38-22.7 271.88-22.7L271.88-22.7 268.13-22.7Q267.48-22.7 267.48-23.3L267.48-23.3 267.48-25.95Q267.48-26.5 268.08-26.5L268.08-26.5 272.08-26.5Q272.48-26.5 272.48-26.95L272.48-26.95 273.08-34.8Q273.13-35.5 273.68-35.5L273.68-35.5 277.13-35.5Q277.78-35.5 277.78-34.7L277.78-34.7 277.78-26.95Q277.78-26.5 278.23-26.5L278.23-26.5 284.23-26.5Q284.83-26.5 284.83-25.95L284.83-25.95 284.83-23.3Q284.83-22.7 284.13-22.7L284.13-22.7ZM293.23-11.4L293.23-11.4Q293.23-9.15 294.3-7.33 295.38-5.5 297.2-4.42 299.03-3.35 301.28-3.35L301.28-3.35Q303.58-3.35 305.38-4.3 307.18-5.25 308.68-7.25L308.68-7.25Q308.83-7.45 308.98-7.48 309.13-7.5 309.43-7.35L309.43-7.35 311.98-6.15Q312.53-5.9 312.08-5.35L312.08-5.35Q310.68-3.3 309-2 307.33-0.7 305.28-0.1 303.23 0.5 300.73 0.5L300.73 0.5Q296.93 0.5 294.03-1.2 291.13-2.9 289.45-5.95 287.78-9 287.78-12.95L287.78-12.95Q287.78-17.3 289.48-20.43 291.18-23.55 294.1-25.28 297.03-27 300.63-27L300.63-27Q304.33-27 307.1-25.38 309.88-23.75 311.43-20.7 312.98-17.65 312.98-13.3L312.98-13.3Q312.98-12.85 312.88-12.53 312.78-12.2 312.23-12.2L312.23-12.2 293.73-12.2Q293.48-12.2 293.35-11.98 293.23-11.75 293.23-11.4L293.23-11.4ZM293.33-15.4L306.88-15.35Q307.43-15.35 307.58-15.5 307.73-15.65 307.73-16.05L307.73-16.05Q307.73-17.95 306.9-19.65 306.08-21.35 304.55-22.4 303.03-23.45 300.78-23.45L300.78-23.45Q298.43-23.45 296.75-22.33 295.08-21.2 294.2-19.35 293.33-17.5 293.33-15.4L293.33-15.4ZM319.07 0L319.07 0Q318.67 0 318.47-0.2 318.27-0.4 318.27-0.8L318.27-0.8 318.27-25.75Q318.27-26.5 318.92-26.5L318.92-26.5 322.77-26.5Q323.37-26.5 323.37-25.85L323.37-25.85 323.37-22.7Q323.37-22.4 323.55-22.35 323.72-22.3 323.92-22.55L323.92-22.55Q325.17-24.05 326.45-25.03 327.72-26 329.02-26.5 330.32-27 331.62-27L331.62-27Q333.37-27 333.37-26.3L333.37-26.3 333.37-22.4Q333.37-21.8 332.82-21.9L332.82-21.9Q332.22-22.05 331.55-22.1 330.87-22.15 330.17-22.15L330.17-22.15Q329.12-22.15 327.97-21.7 326.82-21.25 325.85-20.48 324.87-19.7 324.22-18.75 323.57-17.8 323.57-16.8L323.57-16.8 323.57-0.85Q323.57 0 322.62 0L322.62 0 319.07 0Z" opacity="1" transform="matrix(1,0,0,1,0,0)" fill="#ffffff" class="wordmark-text-0" data-fill-palette-color="primary" id="text-0"></path></svg></g></svg></g></svg></g></svg></g><g><svg viewBox="0 0 75.66802374324448 75.66802374324448" height="75.66802374324448" width="75.66802374324448"><g><svg></svg></g><g id="icon-0"><svg viewBox="0 0 75.66802374324448 75.66802374324448" height="75.66802374324448" width="75.66802374324448"><g><path xmlns="http://www.w3.org/2000/svg" d="M22.7 75.668c-12.537 0-22.7-10.163-22.7-22.7v-30.268c0-12.537 10.163-22.7 22.7-22.7h30.268c12.537 0 22.7 10.163 22.7 22.7v30.268c0 12.537-10.163 22.7-22.7 22.7z" fill="#ffffff" fill-rule="nonzero" stroke="none" stroke-width="1" stroke-linecap="butt" stroke-linejoin="miter" stroke-miterlimit="10" stroke-dasharray="" stroke-dashoffset="0" font-family="none" font-weight="none" font-size="none" text-anchor="none" style="mix-blend-mode: normal" data-fill-palette-color="accent"></path></g><g transform="matrix(1,0,0,1,15.133604748648896,16.969978769685152)"><svg viewBox="0 0 45.400814245946684 41.72806620387417" height="41.72806620387417" width="45.400814245946684"><g><svg xmlns="http://www.w3.org/2000/svg" xmlns:xlink="http://www.w3.org/1999/xlink" version="1.1" x="0" y="0" viewBox="0.5670000314712524 2.544070243835449 48.865997314453125 44.91292953491211" enable-background="new 0 0 50 50" xml:space="preserve" height="41.72806620387417" width="45.400814245946684" class="icon-s-0" data-fill-palette-color="quaternary" id="s-0"><g fill="#0053A6" data-fill-palette-color="quaternary"><path fill="#0053A6" d="M40.662 4.477c-0.824 0.368-1.627 0.769-2.412 1.195 0.795 1.434 1.791 2.866 2.998 4.227 1.211 1.361 2.514 2.516 3.842 3.47 0.51-0.733 0.998-1.494 1.451-2.271 1.571-2.692 2.727-5.619 2.892-8.532C46.529 2.397 43.5 3.221 40.662 4.477z" data-fill-palette-color="quaternary"></path><polygon fill="#0053A6" points="13.016,29.98 10.28,26.896 6.028,27.628 0.567,30.677 13.64,18.961 20.224,19.824  " data-fill-palette-color="quaternary"></polygon><polygon fill="#0053A6" points="18.888,35.112 21.629,38.194 20.422,42.351 16.788,47.457 29.859,35.733 29.754,29.067  " data-fill-palette-color="quaternary"></polygon><path fill="#0053A6" d="M8.156 33.856c-3.019 2.252-7.511 12.373-7.511 12.373s12.876-3.904 13.566-7.102C15.269 33.569 9.292 33.007 8.156 33.856zM11.493 38.388c-0.26 1.219-5.166 2.704-5.166 2.704s1.713-3.855 2.859-4.714C9.618 36.053 11.897 36.268 11.493 38.388z" data-fill-palette-color="quaternary"></path><polyline fill="#0053A6" points="22.817,19.249 12.587,32.963 13.5,33.99 14.11,34.675 15.025,35.698 30.172,26.804  " data-fill-palette-color="quaternary"></polyline><path fill="#0053A6" d="M22.75 19.211l3.609-4.839c0 0 4.656-4.595 10.643-7.836 0.791 1.437 1.791 2.869 2.996 4.228 1.21 1.359 2.512 2.515 3.842 3.469-3.883 5.605-8.959 9.725-8.959 9.725l-4.771 2.806" data-fill-palette-color="quaternary"></path></g></svg></g></svg></g></svg></g></svg></g></svg></g><defs></defs></svg><rect width="395.52" height="61.820624767605686" fill="none" stroke="none" visibility="hidden"></rect></g></svg></g></svg>