<?xml version="1.0" standalone="no"?>
<!DOCTYPE svg PUBLIC "-//W3C//DTD SVG 20010904//EN"
 "http://www.w3.org/TR/2001/REC-SVG-20010904/DTD/svg10.dtd">
<svg version="1.0" xmlns="http://www.w3.org/2000/svg"
 width="128.000000pt" height="128.000000pt" viewBox="0 0 128.000000 128.000000"
 preserveAspectRatio="xMidYMid meet">
<metadata>
Created by potrace 1.14, written by Peter Selinger 2001-2017
</metadata>
<g transform="translate(0.000000,128.000000) scale(0.100000,-0.100000)"
fill="#000000" stroke="none">
<path d="M1052 1094 c-43 -11 -106 -37 -120 -49 -9 -8 33 -68 80 -114 49 -48
54 -50 66 -34 24 31 70 136 78 176 6 36 5 37 -22 36 -16 0 -53 -7 -82 -15z"/>
<path d="M816 973 c-83 -56 -159 -130 -206 -199 -19 -29 -75 -104 -123 -168
-48 -64 -91 -124 -94 -132 -3 -8 5 -26 17 -39 l23 -24 66 36 c36 20 82 46 101
58 19 12 87 53 150 90 113 68 179 124 254 217 l37 47 -59 59 c-33 33 -63 69
-67 81 -9 30 -21 26 -99 -26z"/>
<path d="M290 660 c-135 -121 -154 -145 -76 -99 20 12 56 23 81 26 41 4 48 1
71 -27 l27 -31 51 74 c28 40 61 86 74 102 12 15 19 32 15 36 -4 4 -35 11 -68
14 l-60 7 -115 -102z"/>
<path d="M715 532 c-16 -9 -66 -37 -110 -61 -44 -24 -82 -45 -84 -47 -3 -3 8
-17 24 -34 26 -28 27 -31 16 -75 -6 -25 -28 -69 -48 -98 l-37 -52 44 39 c25
22 47 42 50 45 3 3 44 41 92 84 l87 78 -2 69 c-1 39 -2 70 -2 69 0 0 -13 -8
-30 -17z"/>
<path d="M289 446 c-38 -28 -171 -256 -150 -256 5 0 39 11 76 25 179 68 228
115 194 188 -18 40 -90 66 -120 43z m65 -68 c7 -12 6 -21 -4 -33 -14 -17 -80
-48 -87 -41 -3 2 5 22 16 44 27 53 53 64 75 30z"/>
</g>
</svg>
